<?xml version="1.0" standalone="no"?>
<!DOCTYPE svg PUBLIC "-//W3C//DTD SVG 20010904//EN"
 "http://www.w3.org/TR/2001/REC-SVG-20010904/DTD/svg10.dtd">
<svg version="1.0" xmlns="http://www.w3.org/2000/svg"
 width="16.000000pt" height="16.000000pt" viewBox="0 0 16.000000 16.000000"
 preserveAspectRatio="xMidYMid meet">

<g transform="translate(0.000000,16.000000) scale(0.100000,-0.100000)"
fill="#000000" stroke="none">
<path d="M4 147 c-3 -8 -4 -43 -2 -78 l3 -64 75 0 75 0 0 75 0 75 -73 3 c-55
2 -74 -1 -78 -11z m106 -27 c0 -5 -4 -10 -10 -10 -5 0 -10 -15 -10 -34 0 -22
-6 -36 -16 -40 -9 -4 -19 -4 -22 -1 -3 2 3 7 12 11 19 7 22 54 4 72 -9 9 -6
12 15 12 15 0 27 -4 27 -10z"/>
</g>
</svg>
